<svg width="1024" height="1024" viewBox="0 0 1024 1024" fill="none" xmlns="http://www.w3.org/2000/svg">
<g filter="url(#filter0_d_711_8)">
<rect x="38" y="94.5044" width="891.77" height="891.77" rx="85" fill="#D1E4FF"/>
</g>
<g filter="url(#filter1_d_711_8)">
<rect x="93.5044" y="39" width="891.77" height="891.77" rx="85" fill="white"/>
</g>
<path d="M352.456 779V770.808L385.736 754.424V599.8L353.992 576.76V571.64L434.888 541.432H440.008L444.616 579.32H447.176C459.805 567.032 471.923 557.645 483.528 551.16C495.475 544.675 508.957 541.432 523.976 541.432C544.456 541.432 561.181 546.723 574.152 557.304C587.464 567.885 594.12 583.245 594.12 603.384V754.424L627.4 770.808V779H504.52V770.808L534.728 754.424V625.4C534.728 612.429 530.803 602.531 522.952 595.704C515.101 588.536 504.861 584.952 492.232 584.952C484.381 584.952 476.019 586.317 467.144 589.048C458.269 591.779 450.931 595.533 445.128 600.312V754.424L475.336 770.808V779H352.456ZM680.996 902.392C673.145 902.392 668.196 901.197 666.148 898.808C664.441 896.76 663.588 893.005 663.588 887.544V856.312L666.148 853.752H689.188C697.721 853.752 704.548 853.069 709.668 851.704C714.788 850.339 719.396 846.755 723.492 840.952C727.929 835.149 733.049 825.763 738.852 812.792L753.7 777.976L655.396 569.592L622.628 554.744V546.552H756.26V554.744L720.42 570.104V572.152L781.86 702.712H784.932L833.572 574.712V572.152L799.78 554.744V546.552H898.596V554.744L861.732 572.152L759.844 819.448C756.772 827.299 754.041 833.784 751.652 838.904C749.604 844.365 747.215 849.485 744.484 854.264C741.753 859.384 737.828 865.528 732.708 872.696C725.881 882.595 717.689 889.933 708.132 894.712C698.575 899.832 689.529 902.392 680.996 902.392ZM927.06 781.56C917.503 781.56 909.311 778.147 902.484 771.32C895.657 764.152 892.244 755.789 892.244 746.232C892.244 736.675 895.657 728.483 902.484 721.656C909.311 714.488 917.503 710.904 927.06 710.904C936.617 710.904 944.809 714.488 951.636 721.656C958.804 728.483 962.388 736.675 962.388 746.232C962.388 755.789 958.804 764.152 951.636 771.32C944.809 778.147 936.617 781.56 927.06 781.56Z" fill="black"/>
<defs>
<filter id="filter0_d_711_8" x="19" y="79.5044" width="929.77" height="929.77" filterUnits="userSpaceOnUse" color-interpolation-filters="sRGB">
<feFlood flood-opacity="0" result="BackgroundImageFix"/>
<feColorMatrix in="SourceAlpha" type="matrix" values="0 0 0 0 0 0 0 0 0 0 0 0 0 0 0 0 0 0 127 0" result="hardAlpha"/>
<feOffset dy="4"/>
<feGaussianBlur stdDeviation="9.5"/>
<feComposite in2="hardAlpha" operator="out"/>
<feColorMatrix type="matrix" values="0 0 0 0 0 0 0 0 0 0 0 0 0 0 0 0 0 0 0.25 0"/>
<feBlend mode="normal" in2="BackgroundImageFix" result="effect1_dropShadow_711_8"/>
<feBlend mode="normal" in="SourceGraphic" in2="effect1_dropShadow_711_8" result="shape"/>
</filter>
<filter id="filter1_d_711_8" x="74.5044" y="24" width="929.77" height="929.77" filterUnits="userSpaceOnUse" color-interpolation-filters="sRGB">
<feFlood flood-opacity="0" result="BackgroundImageFix"/>
<feColorMatrix in="SourceAlpha" type="matrix" values="0 0 0 0 0 0 0 0 0 0 0 0 0 0 0 0 0 0 127 0" result="hardAlpha"/>
<feOffset dy="4"/>
<feGaussianBlur stdDeviation="9.5"/>
<feComposite in2="hardAlpha" operator="out"/>
<feColorMatrix type="matrix" values="0 0 0 0 0 0 0 0 0 0 0 0 0 0 0 0 0 0 0.25 0"/>
<feBlend mode="normal" in2="BackgroundImageFix" result="effect1_dropShadow_711_8"/>
<feBlend mode="normal" in="SourceGraphic" in2="effect1_dropShadow_711_8" result="shape"/>
</filter>
</defs>
</svg>
