<svg width="1024" height="1024" viewBox="0 0 1024 1024" fill="none" xmlns="http://www.w3.org/2000/svg">
<g clip-path="url(#clip0_2_8)">
<rect y="35.9924" width="988.591" height="988.591" rx="29" fill="#D1E4FF"/>
<g filter="url(#filter0_d_2_8)">
<rect x="35.4094" width="988.591" height="988.591" rx="29" fill="white"/>
</g>
<path d="M438.386 793V784.808L471.666 768.424V613.8L439.922 590.76V585.64L520.818 555.432H525.938L530.546 593.32H533.106C545.735 581.032 557.853 571.645 569.458 565.16C581.405 558.675 594.887 555.432 609.906 555.432C630.386 555.432 647.111 560.723 660.082 571.304C673.394 581.885 680.05 597.245 680.05 617.384V768.424L713.33 784.808V793H590.45V784.808L620.658 768.424V639.4C620.658 626.429 616.733 616.531 608.882 609.704C601.031 602.536 590.791 598.952 578.162 598.952C570.311 598.952 561.949 600.317 553.074 603.048C544.199 605.779 536.861 609.533 531.058 614.312V768.424L561.266 784.808V793H438.386ZM766.926 916.392C759.075 916.392 754.126 915.197 752.078 912.808C750.371 910.76 749.518 907.005 749.518 901.544V870.312L752.078 867.752H775.118C783.651 867.752 790.478 867.069 795.598 865.704C800.718 864.339 805.326 860.755 809.422 854.952C813.859 849.149 818.979 839.763 824.782 826.792L839.63 791.976L741.326 583.592L708.558 568.744V560.552H842.19V568.744L806.35 584.104V586.152L867.79 716.712H870.862L919.502 588.712V586.152L885.71 568.744V560.552H984.526V568.744L947.662 586.152L845.774 833.448C842.702 841.299 839.971 847.784 837.582 852.904C835.534 858.365 833.145 863.485 830.414 868.264C827.683 873.384 823.758 879.528 818.638 886.696C811.811 896.595 803.619 903.933 794.062 908.712C784.505 913.832 775.459 916.392 766.926 916.392Z" fill="black"/>
</g>
<defs>
<filter id="filter0_d_2_8" x="16.4094" y="-15" width="1026.59" height="1026.59" filterUnits="userSpaceOnUse" color-interpolation-filters="sRGB">
<feFlood flood-opacity="0" result="BackgroundImageFix"/>
<feColorMatrix in="SourceAlpha" type="matrix" values="0 0 0 0 0 0 0 0 0 0 0 0 0 0 0 0 0 0 127 0" result="hardAlpha"/>
<feOffset dy="4"/>
<feGaussianBlur stdDeviation="9.5"/>
<feComposite in2="hardAlpha" operator="out"/>
<feColorMatrix type="matrix" values="0 0 0 0 0 0 0 0 0 0 0 0 0 0 0 0 0 0 0.25 0"/>
<feBlend mode="normal" in2="BackgroundImageFix" result="effect1_dropShadow_2_8"/>
<feBlend mode="normal" in="SourceGraphic" in2="effect1_dropShadow_2_8" result="shape"/>
</filter>
<clipPath id="clip0_2_8">
<rect width="1024" height="1024" fill="white"/>
</clipPath>
</defs>
</svg>
